<?xml version="1.0" standalone="no"?>
<!DOCTYPE svg PUBLIC "-//W3C//DTD SVG 20010904//EN"
 "http://www.w3.org/TR/2001/REC-SVG-20010904/DTD/svg10.dtd">
<svg version="1.0" xmlns="http://www.w3.org/2000/svg"
 width="512.000000pt" height="512.000000pt" viewBox="0 0 512.000000 512.000000"
 preserveAspectRatio="xMidYMid meet">

<g transform="translate(0.000000,512.000000) scale(0.100000,-0.100000)"
fill="#000000" stroke="none">
<path d="M2375 5114 c-371 -32 -723 -135 -1035 -302 -98 -53 -304 -191 -400
-269 -108 -87 -276 -255 -363 -363 -78 -96 -216 -302 -269 -400 -149 -277
-246 -581 -290 -910 -18 -138 -15 -507 5 -653 43 -303 143 -613 285 -877 53
-98 191 -304 269 -400 37 -46 115 -132 173 -190 337 -336 759 -572 1221 -680
212 -50 338 -64 589 -64 251 0 377 14 589 64 302 71 556 181 821 356 162 107
265 191 399 325 339 338 572 757 681 1220 50 212 64 338 64 589 0 251 -14 377
-64 589 -71 302 -181 556 -356 821 -106 162 -194 269 -324 400 -337 336 -759
572 -1221 680 -70 17 -179 37 -241 46 -112 15 -437 26 -533 18z m440 -314
c387 -43 780 -200 1104 -443 123 -92 346 -315 438 -438 243 -324 400 -717 443
-1104 13 -116 13 -394 0 -510 -45 -404 -218 -820 -478 -1150 -72 -90 -267
-285 -357 -356 -335 -265 -741 -434 -1147 -478 -125 -14 -391 -14 -516 0 -406
44 -812 213 -1147 478 -90 71 -285 266 -357 356 -260 329 -433 747 -478 1150
-13 116 -13 394 0 510 43 387 200 780 443 1104 92 124 315 347 437 438 320
238 717 400 1090 442 107 12 419 13 525 1z"/>
<path d="M1051 3563 c-7 -3 -26 -19 -42 -36 l-29 -30 0 -967 0 -967 32 -34 33
-34 1523 -3 1522 -2 38 34 37 34 0 972 0 972 -37 34 -38 34 -1512 -1 c-832 0
-1519 -3 -1527 -6z m2729 -161 c0 -11 -47 -52 -60 -52 -6 0 -10 -4 -10 -8 0
-4 -39 -36 -86 -71 -47 -35 -91 -69 -97 -75 -7 -7 -50 -41 -97 -76 -47 -35
-86 -68 -88 -72 -2 -4 -10 -8 -17 -8 -8 0 -18 -6 -22 -13 -4 -7 -37 -35 -73
-62 -36 -27 -70 -54 -77 -60 -7 -5 -19 -16 -27 -22 -8 -7 -20 -13 -26 -13 -5
0 -10 -4 -10 -9 0 -5 -33 -32 -72 -61 -40 -29 -77 -59 -81 -66 -4 -8 -14 -14
-22 -14 -7 0 -15 -4 -17 -8 -1 -5 -32 -31 -68 -58 -36 -26 -69 -54 -73 -61 -4
-7 -14 -13 -22 -13 -7 0 -15 -4 -17 -8 -1 -4 -40 -36 -85 -70 -80 -60 -105
-68 -117 -36 -3 8 -12 14 -20 14 -8 0 -16 4 -18 8 -1 4 -37 34 -78 66 -41 32
-76 62 -78 67 -2 5 -10 9 -17 9 -7 0 -15 7 -19 15 -3 8 -12 15 -21 15 -8 0
-15 4 -15 9 0 5 -29 30 -65 56 -36 25 -65 50 -65 56 0 5 -7 9 -15 9 -9 0 -18
7 -21 15 -4 8 -12 15 -19 15 -7 0 -15 4 -17 10 -1 5 -37 35 -79 67 -76 59
-267 210 -304 241 -11 10 -60 48 -110 87 -49 38 -98 77 -107 86 -9 9 -38 32
-64 50 l-46 34 898 5 c495 3 1044 6 1222 8 177 1 322 -2 322 -6z m220 -863 l0
-801 -37 28 c-21 16 -45 34 -53 41 -18 15 -129 94 -230 164 -41 28 -79 57 -85
63 -5 7 -39 32 -75 56 -36 24 -66 47 -68 52 -2 4 -10 8 -18 8 -8 0 -14 4 -14
9 0 5 -20 22 -45 38 -25 15 -45 31 -45 36 0 4 -4 7 -10 7 -8 0 -114 75 -163
115 -9 8 -19 15 -22 15 -4 0 -119 84 -158 116 -9 8 -22 14 -27 14 -6 0 -10 3
-10 8 0 10 59 62 71 62 5 0 9 4 9 8 0 4 43 39 95 77 52 38 95 72 95 77 0 4 6
8 14 8 8 0 16 4 18 9 2 5 41 37 88 72 47 34 89 69 93 76 4 7 15 13 22 13 8 0
15 4 15 9 0 4 27 27 61 51 33 23 68 50 77 60 9 9 53 44 97 76 44 33 91 69 105
81 25 22 193 151 198 152 1 1 2 -360 2 -800z m-2762 714 c48 -36 91 -72 95
-80 4 -7 14 -13 22 -13 7 0 15 -4 17 -9 2 -5 37 -34 78 -65 41 -31 89 -69 105
-84 17 -16 63 -52 103 -82 39 -29 72 -57 72 -62 0 -4 6 -8 13 -8 7 0 20 -8 29
-17 20 -22 22 -24 121 -98 42 -32 77 -62 77 -67 0 -4 5 -8 11 -8 6 0 18 -7 27
-16 9 -9 49 -41 89 -71 40 -31 73 -58 73 -62 0 -3 -27 -24 -60 -46 -33 -22
-60 -43 -60 -47 0 -5 -4 -8 -10 -8 -5 0 -21 -10 -35 -21 -13 -12 -51 -40 -83
-63 -75 -52 -171 -125 -196 -148 -11 -10 -26 -18 -33 -18 -7 0 -13 -4 -13 -8
0 -4 -28 -28 -62 -52 -35 -24 -64 -47 -66 -52 -2 -4 -8 -8 -13 -8 -5 0 -17 -7
-26 -15 -26 -21 -125 -95 -218 -162 -44 -31 -91 -67 -105 -80 -14 -13 -30 -23
-37 -23 -10 0 -13 159 -13 780 0 429 3 780 6 780 3 0 45 -30 92 -67z m1111
-880 c20 -15 47 -37 60 -50 36 -34 112 -83 131 -83 23 0 80 20 80 29 0 4 34
31 75 60 41 30 75 58 75 62 0 23 76 -13 110 -52 3 -3 37 -27 75 -54 39 -27 72
-52 75 -55 3 -3 37 -28 75 -55 39 -27 72 -53 73 -57 2 -4 10 -8 17 -8 7 0 15
-3 17 -8 2 -4 35 -30 73 -57 39 -27 72 -52 75 -55 3 -4 28 -21 55 -40 28 -18
55 -38 60 -44 6 -6 18 -15 26 -21 33 -20 137 -95 151 -107 8 -7 21 -17 29 -23
74 -48 149 -101 149 -107 0 -5 -569 -8 -1265 -8 -696 0 -1265 3 -1265 8 0 4
34 30 75 57 41 28 74 53 75 58 0 4 7 7 15 7 8 0 15 5 15 10 0 6 7 10 15 10 8
0 15 4 15 8 0 5 22 24 50 43 27 19 50 37 50 42 0 4 6 7 14 7 8 0 16 4 18 8 3
7 30 28 166 127 15 11 61 45 101 75 159 118 219 162 304 222 48 34 87 65 87
70 0 14 11 9 49 -19z"/>
</g>
</svg>
