<?xml version="1.0" standalone="no"?>
<!DOCTYPE svg PUBLIC "-//W3C//DTD SVG 20010904//EN"
 "http://www.w3.org/TR/2001/REC-SVG-20010904/DTD/svg10.dtd">
<svg version="1.0" xmlns="http://www.w3.org/2000/svg"
 width="512.000000pt" height="512.000000pt" viewBox="0 0 512.000000 512.000000"
 preserveAspectRatio="xMidYMid meet">

<g transform="translate(0.000000,512.000000) scale(0.100000,-0.100000)"
fill="#000000" stroke="none">
<path d="M2330 5109 c-779 -74 -1473 -491 -1911 -1149 -81 -121 -211 -380
-264 -524 -108 -293 -163 -647 -151 -961 25 -678 296 -1284 782 -1755 425
-411 968 -658 1564 -710 1018 -89 2006 459 2481 1375 264 508 348 1076 244
1640 -96 516 -331 961 -705 1336 -210 210 -387 342 -635 470 -430 224 -933
323 -1405 278z m500 -323 c314 -39 603 -137 866 -293 591 -351 977 -927 1081
-1613 24 -158 24 -473 0 -630 -73 -476 -272 -887 -597 -1233 -214 -227 -504
-423 -804 -542 -138 -55 -188 -57 -235 -11 l-26 26 -6 413 c-6 470 -9 487 -94
611 l-44 64 42 7 c188 28 362 77 472 132 294 148 454 398 494 771 35 330 -13
522 -195 769 -15 20 -15 28 1 94 18 81 21 245 5 329 -5 30 -19 85 -31 123
l-22 67 -56 0 c-112 0 -318 -79 -480 -184 l-71 -46 -58 15 c-307 81 -671 85
-979 10 l-98 -23 -70 43 c-172 107 -376 185 -485 185 l-56 0 -17 -47 c-51
-145 -64 -334 -32 -471 16 -67 16 -75 1 -95 -164 -222 -213 -383 -203 -652 12
-312 91 -533 252 -703 144 -153 340 -248 610 -297 50 -9 105 -20 123 -23 l33
-7 -35 -46 c-40 -51 -82 -146 -92 -209 -8 -48 -25 -59 -131 -85 -111 -27 -239
-18 -323 22 -87 41 -137 87 -205 187 -94 140 -190 214 -306 236 -52 10 -122 1
-142 -19 -17 -17 6 -55 53 -87 128 -89 184 -154 247 -284 72 -151 75 -157 115
-204 114 -133 314 -199 535 -176 52 6 105 13 119 16 l24 6 0 -206 c0 -233 -6
-257 -65 -282 -52 -22 -77 -18 -203 32 -615 239 -1099 751 -1306 1379 -81 249
-110 429 -110 705 0 228 14 352 65 555 115 455 374 863 744 1173 260 218 615
392 940 461 236 51 529 65 755 37z"/>
</g>
</svg>
